<mxfile host="65bd71144e">
    <diagram id="gKcORhptfzCjkrHsRWXi" name="Page-1">
        <mxGraphModel dx="954" dy="531" grid="1" gridSize="10" guides="1" tooltips="1" connect="1" arrows="1" fold="1" page="1" pageScale="1" pageWidth="850" pageHeight="1100" math="0" shadow="0">
            <root>
                <mxCell id="0"/>
                <mxCell id="1" parent="0"/>
                <mxCell id="13" style="edgeStyle=none;curved=1;html=1;fontSize=18;entryX=1;entryY=0.625;entryDx=0;entryDy=0;entryPerimeter=0;" edge="1" parent="1" source="3" target="4">
                    <mxGeometry relative="1" as="geometry">
                        <mxPoint x="210" y="245" as="targetPoint"/>
                    </mxGeometry>
                </mxCell>
                <mxCell id="3" value="&lt;font style=&quot;font-size: 18px;&quot;&gt;REDUSER&lt;/font&gt;" style="shape=loopLimit;whiteSpace=wrap;html=1;size=40;" vertex="1" parent="1">
                    <mxGeometry x="358" y="200" width="135" height="90" as="geometry"/>
                </mxCell>
                <mxCell id="12" style="edgeStyle=none;curved=1;html=1;entryX=0.5;entryY=0;entryDx=0;entryDy=0;fontSize=18;exitX=0.5;exitY=0;exitDx=0;exitDy=0;" edge="1" parent="1" source="4" target="3">
                    <mxGeometry relative="1" as="geometry">
                        <Array as="points">
                            <mxPoint x="170" y="130"/>
                            <mxPoint x="430" y="130"/>
                        </Array>
                    </mxGeometry>
                </mxCell>
                <mxCell id="14" style="edgeStyle=none;curved=1;html=1;entryX=0.5;entryY=0.5;entryDx=0;entryDy=0;entryPerimeter=0;fontSize=18;" edge="1" parent="1" source="4" target="7">
                    <mxGeometry relative="1" as="geometry">
                        <Array as="points">
                            <mxPoint x="150" y="400"/>
                            <mxPoint x="460" y="390"/>
                        </Array>
                    </mxGeometry>
                </mxCell>
                <mxCell id="4" value="STORE" style="shape=datastore;whiteSpace=wrap;html=1;fontSize=18;" vertex="1" parent="1">
                    <mxGeometry x="70" y="170" width="90" height="120" as="geometry"/>
                </mxCell>
                <mxCell id="11" style="edgeStyle=none;html=1;entryX=1;entryY=0.75;entryDx=0;entryDy=0;fontSize=18;exitX=-0.008;exitY=0.367;exitDx=0;exitDy=0;exitPerimeter=0;curved=1;" edge="1" parent="1" source="6" target="3">
                    <mxGeometry relative="1" as="geometry">
                        <Array as="points">
                            <mxPoint x="570" y="110"/>
                            <mxPoint x="570" y="268"/>
                        </Array>
                    </mxGeometry>
                </mxCell>
                <mxCell id="6" value="ACTION" style="rounded=0;whiteSpace=wrap;html=1;fontSize=18;" vertex="1" parent="1">
                    <mxGeometry x="640" y="90" width="120" height="60" as="geometry"/>
                </mxCell>
                <mxCell id="10" style="edgeStyle=none;html=1;fontSize=18;" edge="1" parent="1" source="7" target="6">
                    <mxGeometry relative="1" as="geometry"/>
                </mxCell>
                <mxCell id="7" value="UI" style="shape=umlActor;verticalLabelPosition=bottom;verticalAlign=top;html=1;outlineConnect=0;fontSize=18;" vertex="1" parent="1">
                    <mxGeometry x="670" y="330" width="75" height="120" as="geometry"/>
                </mxCell>
            </root>
        </mxGraphModel>
    </diagram>
</mxfile>